<svg width="143" height="128"><g fill="none" fill-rule="evenodd"><path class="u30-logo__line-mask" d="M31.275 95h90v1.002h-90z"></path><g fill="currentColor"><path d="m15.295 35.6727 16.8195.1773c.4124 4.1373 3.3285 6.9743 10.8987 7.063 6.5687.059 9.75-1.98 9.7794-5.674.0295-3.4872-3.1223-5.1421-9.4554-5.2012l-5.8912-.0591.1178-10.6388 5.5967.0591c6.2741.0591 9.367-1.6845 9.426-4.9943.0294-2.9552-2.7395-4.9057-8.6601-4.9648-5.744-.059-9.1609 2.2756-10.1035 6.265l-16.5248-.1772C18.2996 6.8889 27.6666-.174 44.8984.0033c15.8474.1773 25.45 5.5853 25.3617 14.6874-.059 5.9104-4.0944 9.7817-10.9577 11.4366 7.9532 1.3299 12.5483 5.615 12.49 11.8209-.1184 10.1955-10.0451 16.8447-28.0428 16.6378-19.3526-.2364-27.8949-7.5948-28.4545-18.9133M118.5396 29.1418l.0295-3.6349c.0883-8.57-4.1533-13.2098-12.9902-13.2984-8.9252-.0887-13.1668 4.3737-13.2552 13.0325l-.0295 3.5462c-.0883 8.6588 4.1533 13.1212 13.1964 13.2394 9.1313.0886 12.9606-4.4624 13.049-12.8848m-45.1267-.4728.0295-3.5462C73.619 8.9282 85.8728-.2034 105.6084.0034c19.765.2069 31.8125 9.7227 31.6653 25.4149l-.0295 3.4871c-.1767 15.9582-11.4584 25.9172-32.4017 25.7104-20.9138-.266-31.5769-10.491-31.4296-25.9468"></path></g><path d="M9.6345 81.3766v8.5997c0 1.5663-.7953 2.2755-2.1798 2.2755-1.3844 0-2.1797-.6797-2.1797-2.2755v-8.5701h1.5612v8.57c0 .7093.1473.9753.589.9753.442 0 .5892-.2955.5892-1.0048v-8.5405h1.6201v-.0296ZM11.0484 81.3766h1.7084l1.1194 5.1716.2062 1.0935v-6.2651h1.3844V92.104h-1.5023l-1.3255-6.0581-.2062-1.0935v7.1516h-1.3844zM18.4713 82.6178v8.245h.2946c.7364 0 .9131-.2955.9131-1.389v-5.5262c0-1.0047-.2356-1.3298-.9131-1.3298h-.2946Zm.2946-1.2412c1.5022 0 2.5332.532 2.5332 2.5415v5.6149c0 2.0095-1.031 2.571-2.5332 2.571h-1.8852V81.3766h1.8852ZM22.7424 81.3766h3.4464v1.2412h-1.8557v3.1325h1.4728v1.2412h-1.4728v3.8714h1.9441v1.2411h-3.5348zM29.6646 86.105c.5597 0 .648-.2069.648-.9162v-1.714c0-.6797-.1472-.8865-.648-.8865h-.5007v3.5167h.5007Zm-2.0914-4.7284h2.0914c1.679 0 2.2092.6797 2.2092 2.0982v1.8027c0 .9752-.2356 1.448-.8542 1.714l1.0899 5.1125h-1.6496l-.9131-4.9056h-.324v4.9056h-1.5906V81.3766h-.059Z" fill="#EC1E24"></path><path d="m15.295 95.7022 16.8195.1773c.4124 4.1373 3.3285 6.9744 10.8987 7.063 6.5687.0591 9.75-1.98 9.7794-5.674.0295-3.4872-3.1223-5.142-9.4554-5.2012l-5.8912-.059.1178-10.6388 5.5967.059c6.2741.0592 9.367-1.6844 9.426-4.9943.0294-2.9552-2.7395-4.9056-8.6601-4.9647-5.744-.0591-9.1609 2.2755-10.1035 6.265l-16.4954-.2068C18.329 66.8889 27.6961 59.826 44.928 60.0033c15.8473.1773 25.45 5.5853 25.3616 14.6874-.0589 5.9104-4.0944 9.7817-10.9576 11.4366 7.9531 1.3299 12.5483 5.615 12.49 11.8209-.1185 10.1955-10.0452 16.8447-28.0428 16.6378-19.3821-.2364-27.9244-7.5653-28.484-18.8838M118.5101 89.1418l.0295-3.6349c.0884-8.57-4.1533-13.2098-12.9901-13.2984-8.9252-.0887-13.1669 4.3737-13.2553 13.0325l-.0294 3.5462c-.0884 8.6588 4.1533 13.1212 13.1963 13.2394 9.1608.0886 12.9607-4.4329 13.049-12.8848M73.413 88.669l.0295-3.5462c.1767-16.1946 12.4304-25.3262 32.166-25.1194 19.765.2069 31.8125 9.7227 31.6653 25.4149l-.0295 3.4871c-.1767 15.9582-11.4584 25.9172-32.4017 25.7104-20.9432-.2364-31.5769-10.491-31.4296-25.9468" fill="currentColor"></path><path d="M1.59 128v-5.41l4.4 5.41h1.89v-7.15H6.29v5l-4.11-5H0V128h1.59Zm12.51.11c2.98 0 4.88-1.56 4.88-3.68v-.08c0-2.14-1.96-3.6-4.87-3.6-2.89 0-4.87 1.52-4.87 3.64v.08c0 2.08 1.84 3.64 4.86 3.64Zm.03-1.26c-1.8 0-3-.94-3-2.39v-.08c0-1.44 1.09-2.38 2.98-2.38 1.87 0 2.99.99 2.99 2.37v.08c0 1.44-1.14 2.4-2.97 2.4Zm8.04 1.15v-2.47h1.71L25.9 128h2.03l-2.31-2.86c.95-.3 1.72-.87 1.72-2.04v-.04c0-1.52-1.27-2.21-3.22-2.21h-3.75V128h1.8Zm1.88-3.71h-1.88v-2.23h1.89c.89 0 1.5.29 1.5 1.09v.04c0 .74-.57 1.1-1.51 1.1Zm8.7 3.71v-5.9h2.71v-1.25h-7.23v1.25h2.71v5.9h1.81Zm5.72 0v-2.95h4.34V128h1.81v-7.15h-1.81v2.92h-4.34v-2.92h-1.81V128h1.81Zm11.72 0 .72-1.6h3.83l.7 1.6h1.9l-3.22-7.15h-2.35L48.51 128h1.68Zm4.05-2.76h-2.81l1.42-3.18 1.39 3.18Zm5.82 2.76v-5.34L63 128h.59l2.93-5.34V128h1.75v-7.15h-2.31l-2.55 4.61-2.6-4.61h-2.35V128h1.6Zm16.8 0v-1.22h-4.97v-1.8h4.04v-1.22h-4.04v-1.69h4.75v-1.22h-6.55V128h6.77Zm3.2 0v-2.47h1.71l2.02 2.47h2.03l-2.31-2.86c.95-.3 1.72-.87 1.72-2.04v-.04c0-1.52-1.27-2.21-3.22-2.21h-3.75V128h1.8Zm1.88-3.71h-1.88v-2.23h1.89c.89 0 1.5.29 1.5 1.09v.04c0 .74-.57 1.1-1.51 1.1ZM88.8 128v-7.15h-1.83V128h1.83Zm6.14.11c2.42 0 4.04-.9 4.31-2.67h-1.76c-.21.93-1.12 1.39-2.56 1.39-1.77 0-2.83-.91-2.83-2.37v-.08c0-1.45 1.13-2.37 2.82-2.37 1.46 0 2.19.49 2.37 1.32h1.85c-.25-1.76-1.86-2.58-4.23-2.58-2.64 0-4.7 1.48-4.7 3.64v.08c0 2.19 1.72 3.64 4.73 3.64Zm6.3-.11.72-1.6h3.83l.7 1.6h1.9l-3.22-7.15h-2.35L99.56 128h1.68Zm4.05-2.76h-2.81l1.42-3.18 1.39 3.18Zm13.15 2.76v-1.21h-3.72l1.84-1.33c1.08-.78 1.81-1.55 1.81-2.52 0-1.31-1.11-2.19-3.19-2.19-2.03 0-3.31 1-3.46 2.65h1.65c.15-.99.79-1.43 1.75-1.43.93 0 1.46.38 1.46 1.05 0 .64-.48 1.14-1.51 1.93l-3.49 2.67v.38h6.86Zm5.03.11c2.65 0 4.06-1.39 4.06-3.46v-.52c0-2.03-1.5-3.38-4.06-3.38-2.55 0-4.07 1.32-4.07 3.41v.54c0 2.02 1.44 3.41 4.07 3.41Zm.04-1.25c-1.5 0-2.29-.78-2.29-2.17v-.54c0-1.38.76-2.18 2.25-2.18 1.48 0 2.26.85 2.26 2.17v.59c0 1.33-.69 2.13-2.22 2.13Zm11.6 1.14v-1.21h-3.72l1.84-1.33c1.08-.78 1.81-1.55 1.81-2.52 0-1.31-1.11-2.19-3.19-2.19-2.03 0-3.31 1-3.46 2.65h1.65c.15-.99.79-1.43 1.75-1.43.93 0 1.46.38 1.46 1.05 0 .64-.48 1.14-1.51 1.93l-3.49 2.67v.38h6.86Zm7.6 0v-1.21h-3.72l1.84-1.33c1.08-.78 1.81-1.55 1.81-2.52 0-1.31-1.11-2.19-3.19-2.19-2.03 0-3.31 1-3.46 2.65h1.65c.15-.99.79-1.43 1.75-1.43.93 0 1.46.38 1.46 1.05 0 .64-.48 1.14-1.51 1.93l-3.49 2.67v.38h6.86Z" fill="currentColor" fill-rule="nonzero"></path></g></svg>